<?xml version="1.0" encoding="UTF-8"?>
<svg version="1.1" viewBox="0 0 2048 805" width="422" height="166" xmlns="http://www.w3.org/2000/svg">
<path transform="translate(0)" d="m0 0h2048v805h-2048z" fill="#FDFDFD"/>
<path transform="translate(1128,280)" d="m0 0 3 1 1 76 1 2 7-7 7-8 12-13 11-12 7-8 12-13 11-11 6-7h18l21 1-3 6-15 16-11 12-9 10-9 11-13 14-5 6 1 5 14 18 13 17 11 14 13 17 13 16 3 3 3-10 19-43 21-49 13-30 12-27 3-6h36l8 16 13 31 15 34 21 49 11 25 5 12v3h-37l-4-5-10-25-1-3h-77l-7 14-8 17-2 2h-74l-9-9-9-11-14-17-8-10-13-16h-4l-9 9-7 8-3 3-1 43h-37v-170z" fill="#2E2F33"/>
<path transform="translate(583,281)" d="m0 0h37v139h83v27l18-42 13-30 20-46 17-39 4-9h36l4 6 21 49 19 43 12 28 13 30 5 12v2h-39l-4-8-9-23-2-2h-76l-12 27-3 5-1 1h-156z" fill="#2E2F33"/>
<path transform="translate(272,260)" d="m0 0h119l7 8 9 13 13 18 14 19 12 17 39 54 13 19 7 11 1 5-7 3h-116l-5-2-10-13-20-28-52-72-12-17-10-14-9-14-1-4 2-2z" fill="#2585FE"/>
<path transform="translate(264,426)" d="m0 0h114l13 18 14 19 10 14 14 19 10 14 26 36 14 20 11 16 5 8v2l-14 1h-110l-7-3-8-10-12-17-26-36-10-14-13-18-10-14-13-18-12-17-7-11-1-7 2-1z" fill="#2585FE"/>
<path transform="translate(1512,281)" d="m0 0h79l17 3 16 6 10 7 5 4 7 10 5 10 2 7 1 8v13l-3 15-6 12-7 9-12 9-14 6-12 3-10 1-40 1-1 45-1 1h-36z" fill="#2E2E33"/>
<path transform="translate(918,280)" d="m0 0h14l9 10 9 11 12 15 13 17 9 11 10 13 11 14 9 11 1 1 1-101 1-1h35l1 11v145l-1 14-6 1h-12l-10-1-5-4-18-22-32-40-9-11-11-14-7-8-2-1 1 8-1 91-7 2h-25l-5-1v-170z" fill="#2E2F34"/>
<path transform="translate(1752,279)" d="m0 0h21l14 2 15 5 13 7 10 8 4 4-1 4-21 21-7-6-9-7-8-4-7-2-14-1-14 2-14 7-8 7-7 10-5 14-1 5v22l4 14 6 11 8 9 12 7 10 3 13 1 13-2 10-4 11-8 6-5 4 2 20 20-6 7-9 7-16 8-12 4-14 2h-18l-19-3-13-5-11-6-15-12-10-13-8-16-4-14-1-6v-24l4-18 8-17 9-12 7-7 11-8 16-8 15-4z" fill="#2E2F35"/>
<path transform="translate(583,281)" d="m0 0h37v139h83v16l-1 13-1 2h-118z" fill="#2E2E32"/>
<path transform="translate(164,508)" d="m0 0h62l19 1 2 1v67l-1 13-1 2-3 1-13 1h-37l-47-1-1-21v-62l2-1z" fill="#00DFB6"/>
<path transform="translate(1550,312)" d="m0 0h41l10 3 9 7 5 10 1 5v11l-3 10-5 7-10 6-9 2h-39l-1-1v-59z" fill="#FDFDFD"/>
<path transform="translate(920,504)" d="m0 0h26l10 2 6 4 4 8-1 8-5 2 1 6 7 8 1 4v8l-4 6-6 5-8 2h-36l-1-1v-61z" fill="#0A73FE"/>
<path transform="translate(588,504)" d="m0 0h29l9 2 5 4 4 8v7l-5 3v5l6 7 2 10-1 6-7 8-10 3h-35l-1-1-1-60z" fill="#0A73FE"/>
<path transform="translate(792,323)" d="m0 0 4 4 6 14 17 42 1 3h-53l3-9 16-40 5-13z" fill="#FDFDFD"/>
<path transform="translate(1335,323)" d="m0 0 3 1 4 8 11 28 10 24v2h-52l1-5 18-45z" fill="#FDFDFD"/>
<path transform="translate(670,504)" d="m0 0h38l1 1v9l-33 1-1 13h22l9 1 1 1v7l-3 1-28 1 1 18h19l15 1 1 8-2 1h-46v-62z" fill="#0C74FE"/>
<path transform="translate(1e3 504)" d="m0 0h6l1 6v30l2 10 4 6 2 1h13l6-4 3-4 1-4 1-40 9-1 1 1v42l-4 9-4 5-8 5-4 1h-14l-10-5-6-7-3-12v-38z" fill="#0B74FE"/>
<path transform="translate(753,504)" d="m0 0h11l11 3 5 4-1 5-5 1-12-3h-10l-4 2-1 2v8l8 3 17 5 6 4 4 5v12l-7 8-10 4h-12l-12-3-6-4-1-4 2-3 6 1 9 3h15l5-3 1-7-3-3-23-7-8-5-3-5v-9l4-7 10-6z" fill="#0B73FE"/>
<path transform="translate(806,504)" d="m0 0h47l1 1v8l-1 1h-20v53h-11l-1-1v-52l-21-1v-7z" fill="#2585FE"/>
<path transform="translate(1126,503)" d="m0 0 5 1-2 5-21 35-1 3v18l-2 2h-8l-1-1v-18l-4-10-13-23-7-9 1-2h9l6 7 9 15 4 8h2l9-17 8-12z" fill="#0B73FE"/>
<path transform="translate(595,538)" d="m0 0h28l4 5v10l-4 4-3 1h-24l-1-1z" fill="#FDFDFD"/>
<path transform="translate(928,537)" d="m0 0 25 1 4 4 1 2v8l-5 5-3 1h-24v-20z" fill="#FDFDFD"/>
<path transform="translate(806,504)" d="m0 0h47l1 1v8l-1 1h-21l-2-3-5 2-3 4v-3l-22-1v-7z" fill="#0B73FE"/>
<path transform="translate(595,514)" d="m0 0h27l2 4v7l-3 3h-26z" fill="#FDFDFD"/>
<path transform="translate(926,514)" d="m0 0h27l2 5v6l-4 3-23 1-2-1z" fill="#FDFDFD"/>
<path transform="translate(674,539)" d="m0 0h1l2 19h-2v-2l-5-1-3-7 3-6 4-1z" fill="#2585FE"/>
<path transform="translate(594,537)" d="m0 0h28v1h-27l1 20h-2l-1-6-4-1-1-3 1-4 4-1z" fill="#2585FE"/>
<path transform="translate(633,515)" d="m0 0 2 3v7l-5 2-1-8 4-2z" fill="#2585FE"/>
<path transform="translate(967,542)" d="m0 0 2 4v8l-2 2-1-4h-2l1-6z" fill="#2585FE"/>
<path transform="translate(823,557)" d="m0 0 2 4v2l5 2v1h-9v-5z" fill="#0A73FE"/>
<path transform="translate(1105,548)" d="m0 0h1l1 17-2 1-1-7z" fill="#2585FE"/>
</svg>
